
<svg  version="1.1" 
      id="Square_Lattices" 
      width="650" height="320">
	    
<g id="Upright_Lattice">
	<circle cx="20" cy="20"  r="3"/>
	<circle cx="20" cy="60"  r="3"/>
	<circle cx="20" cy="100" r="3"/>
	<circle cx="20" cy="140" r="3"/>
	<circle cx="20" cy="180" r="3"/>
	<circle cx="20" cy="220" r="3"/>
	<circle cx="20" cy="260" r="3"/>
	<circle cx="20" cy="300" r="3"/>

	<circle cx="60" cy="20"  r="3"/>
	<circle cx="60" cy="60"  r="3"/>
	<circle cx="60" cy="100" r="3"/>
	<circle cx="60" cy="140" r="3"/>
	<circle cx="60" cy="180" r="3"/>
	<circle cx="60" cy="220" r="3"/>
	<circle cx="60" cy="260" r="3"/>
	<circle cx="60" cy="300" r="3"/>

	<circle cx="100" cy="20"  r="3"/>
	<circle cx="100" cy="60"  r="3"/>
	<circle cx="100" cy="100" r="3"/>
	<circle cx="100" cy="140" r="3"/>
	<circle cx="100" cy="180" r="3"/>
	<circle cx="100" cy="220" r="3"/>
	<circle cx="100" cy="260" r="3"/>
	<circle cx="100" cy="300" r="3"/>
	
	<circle cx="140" cy="20"  r="3"/>
	<circle cx="140" cy="60"  r="3"/>
	<circle cx="140" cy="100" r="3"/>
	<circle cx="140" cy="140" r="3"/>
	<circle cx="140" cy="180" r="3"/>
	<circle cx="140" cy="220" r="3"/>
	<circle cx="140" cy="260" r="3"/>
	<circle cx="140" cy="300" r="3"/>
	
	<circle cx="180" cy="20"  r="3"/>
	<circle cx="180" cy="60"  r="3"/>
	<circle cx="180" cy="100" r="3"/>
	<circle cx="180" cy="140" r="3"/>
	<circle cx="180" cy="180" r="3"/>
	<circle cx="180" cy="220" r="3"/>
	<circle cx="180" cy="260" r="3"/>
	<circle cx="180" cy="300" r="3"/>
		
	<circle cx="220" cy="20"  r="3"/>
	<circle cx="220" cy="60"  r="3"/>
	<circle cx="220" cy="100" r="3"/>
	<circle cx="220" cy="140" r="3"/>
	<circle cx="220" cy="180" r="3"/>
	<circle cx="220" cy="220" r="3"/>
	<circle cx="220" cy="260" r="3"/>
	<circle cx="220" cy="300" r="3"/>
	
	<circle cx="260" cy="20" r="3"/>
	<circle cx="260" cy="60"  r="3"/>
	<circle cx="260" cy="100" r="3"/>
	<circle cx="260" cy="140" r="3"/>
	<circle cx="260" cy="180" r="3"/>
	<circle cx="260" cy="220" r="3"/>
	<circle cx="260" cy="260" r="3"/>
	<circle cx="260" cy="300" r="3"/>
	
	<circle cx="300" cy="20"  r="3"/>
	<circle cx="300" cy="60"  r="3"/>
	<circle cx="300" cy="100" r="3"/>
	<circle cx="300" cy="140" r="3"/>
	<circle cx="300" cy="180" r="3"/>
	<circle cx="300" cy="220" r="3"/>
	<circle cx="300" cy="260" r="3"/>
	<circle cx="300" cy="300" r="3"/>
</g>
</svg>
